<?xml version="1.0" encoding="UTF-8"?>
<!DOCTYPE svg PUBLIC "-//W3C//DTD SVG 1.1//EN" "http://www.w3.org/Graphics/SVG/1.1/DTD/svg11.dtd">
<!-- Creator: CorelDRAW X7 -->
<svg xmlns="http://www.w3.org/2000/svg" xml:space="preserve" width="613px" height="600px" version="1.1" style="shape-rendering:geometricPrecision; text-rendering:geometricPrecision; image-rendering:optimizeQuality; fill-rule:evenodd; clip-rule:evenodd"
viewBox="0 0 61285003 59986323"
 xmlns:xlink="http://www.w3.org/1999/xlink">
 <defs>
  <style type="text/css">
   <![CDATA[
    .str7 {stroke:white;stroke-width:229790;stroke-linecap:round;stroke-linejoin:round;stroke-opacity:0.200000}
    .str4 {stroke:#1A1A1A;stroke-width:229790}
    .str2 {stroke:#202D34;stroke-width:229790}
    .str3 {stroke:#202D34;stroke-width:229790}
    .str1 {stroke:#202D34;stroke-width:229790;stroke-linejoin:round}
    .str5 {stroke:#202D34;stroke-width:229790;stroke-linecap:round;stroke-linejoin:round}
    .str8 {stroke:white;stroke-width:229790;stroke-linecap:round;stroke-linejoin:round}
    .str6 {stroke:#202D34;stroke-width:459521;stroke-linecap:round;stroke-linejoin:round}
    .str0 {stroke:#202D34;stroke-width:229790;stroke-linecap:round;stroke-linejoin:round;stroke-dasharray:918924.343848 918924.343848}
    .fil2 {fill:none;fill-rule:nonzero}
    .fil12 {fill:none;fill-rule:nonzero}
    .fil5 {fill:#202D34;fill-rule:nonzero}
    .fil0 {fill:#58E3A7;fill-rule:nonzero}
    .fil9 {fill:#6B55F6;fill-rule:nonzero}
    .fil7 {fill:#6B55F6;fill-rule:nonzero}
    .fil8 {fill:#C749F3;fill-rule:nonzero}
    .fil4 {fill:white;fill-rule:nonzero}
    .fil11 {fill:black;fill-rule:nonzero;fill-opacity:0.200000}
    .fil6 {fill:white;fill-rule:nonzero;fill-opacity:0.200000}
    .fil3 {fill:#C749F3;fill-rule:nonzero;fill-opacity:0.501961}
    .fil10 {fill:white;fill-rule:nonzero;fill-opacity:0.501961}
    .fil1 {fill:#C749F3;fill-rule:nonzero;fill-opacity:0.701961}
   ]]>
  </style>
 </defs>
 <g id="Layer_x0020_1">
  <metadata id="CorelCorpID_0Corel-Layer"/>
  <g id="_1335622987920">
   <path class="fil0" d="M59472247 23269557c-6803606,-11651045 -25256544,-7501420 -29025764,-13168947 -1929894,-2901897 -4088989,-6265500 -7220676,-8014727 -2985441,-1667632 -6446995,-2262536 -9464850,-2041602 -10776460,788738 -15345871,10430713 -13274867,21019007 2762500,14124181 15283169,28551837 30157652,28652857 7779387,52783 15206592,-2728020 21032704,-6659308 43632,-29403 87028,-58806 130305,-88327 5820327,-3961813 12859981,-10803560 7665496,-19698953z"/>
   <path class="fil1" d="M59472247 23269557c-6803606,-11651045 -25256544,-7501420 -29025764,-13168947 -1929894,-2901897 -4088989,-6265500 -7220676,-8014727 -2985441,-1667632 -6446995,-2262536 -9464850,-2041602 -10776460,788738 -15345871,10430713 -13274867,21019007 2762500,14124181 15283169,28551837 30157652,28652857 7779387,52783 15206592,-2728020 21032704,-6659308 43632,-29403 87028,-58806 130305,-88327 5820327,-3961813 12859981,-10803560 7665496,-19698953z"/>
   <path class="fil2 str0" d="M6661611 24117277l-756442 0"/>
   <path class="fil2 str0" d="M5905169 24117277c-1690657,0 -3061132,1370534 -3061132,3061192"/>
   <path class="fil2 str0" d="M2844037 27178469l0 16796997"/>
   <path class="fil2 str0" d="M2844037 43975466c0,1690658 1370475,3061192 3061132,3061192"/>
   <path class="fil2 str0" d="M5905169 47036658l10379051 0"/>
   <path class="fil2 str0" d="M16284220 47036658c1690658,0 3061192,-1370534 3061192,-3061192"/>
   <path class="fil2 str0" d="M18494327 8268253l0 -3317964"/>
   <path class="fil2 str0" d="M18494327 4950289c0,-1035414 839336,-1874809 1874749,-1874809"/>
   <path class="fil2 str0" d="M20369076 3075480l13497336 0"/>
   <path class="fil2 str0" d="M33866412 3075480c1035414,0 1874750,839395 1874750,1874809"/>
   <path class="fil0" d="M57374615 56250698c0,2063093 -11968393,3735625 -26732054,3735625 -14763780,0 -26732114,-1672532 -26732114,-3735625 0,-2063151 11968334,-3735624 26732114,-3735624 14763661,0 26732054,1672473 26732054,3735624z"/>
   <path class="fil3" d="M57374615 56250698c0,2063093 -11968393,3735625 -26732054,3735625 -14763780,0 -26732114,-1672532 -26732114,-3735625 0,-2063151 11968334,-3735624 26732114,-3735624 14763661,0 26732054,1672473 26732054,3735624z"/>
   <path class="fil4 str1" d="M55841776 12720112l0 25132262c0,1710614 -1387243,3097856 -3097857,3097856l-44202835 0c-1710555,0 -3097857,-1387242 -3097857,-3097856l0 -25132262c0,-73921 3071,-146247 9270,-218632 110880,-1608944 1451893,-2880760 3088587,-2880760l44202835 0c1636694,0 2977766,1271816 3088646,2880760 6082,72385 9211,144711 9211,218632z"/>
   <path class="fil5" d="M51589005 39781796l-41735130 0c-1603394,0 -2903196,-1299802 -2903196,-2903255l0 -23216006 47541582 0 0 23216006c0,1603453 -1299802,2903255 -2903256,2903255z"/>
   <path class="fil6" d="M54492969 13662416l0 23216892c0,1602804 -1286281,2902311 -2870900,2902311l-41800489 0c-1584619,0 -2870901,-1299507 -2870901,-2902311l0 -23216892 47542290 0z"/>
   <path class="fil7 str2" d="M55832565 12501480l-50380068 0c110880,-1608944 1451893,-2880760 3088587,-2880760l44202835 0c1636694,0 2977766,1271816 3088646,2880760z"/>
   <path class="fil5" d="M11643428 11061100c0,303061 -245672,548733 -548674,548733 -303061,0 -548733,-245672 -548733,-548733 0,-303061 245672,-548733 548733,-548733 303002,0 548674,245672 548674,548733z"/>
   <path class="fil5" d="M13963529 11061100c0,303061 -245672,548733 -548733,548733 -303002,0 -548733,-245672 -548733,-548733 0,-303061 245731,-548733 548733,-548733 303061,0 548733,245672 548733,548733z"/>
   <path class="fil5" d="M16283630 11061100c0,303061 -245672,548733 -548733,548733 -303061,0 -548733,-245672 -548733,-548733 0,-303061 245672,-548733 548733,-548733 303061,0 548733,245672 548733,548733z"/>
   <path class="fil2 str3" d="M54492202 13663302l0 23215357"/>
   <path class="fil2 str3" d="M54492202 36878659c0,1602803 -1299448,2903845 -2903846,2903845"/>
   <path class="fil2 str3" d="M51588356 39782504l-41734717 0"/>
   <path class="fil2 str3" d="M9853639 39782504c-1410328,0 -2585080,-1006955 -2846870,-2340293"/>
   <path class="fil2 str3" d="M7006769 37442211l-1476 -1594 0 -6081"/>
   <path class="fil2 str3" d="M7005293 37434536c-35484,-180136 -53905,-366472 -53905,-555877"/>
   <path class="fil2 str3" d="M6951388 36878659l0 -23215357 47540814 0"/>
   <path class="fil5" d="M54447153 17254098c-203221,-113892 -420318,-203222 -645148,-266337l-260197 -1165542 -1108566 0 -258661 1165542c-226307,61580 -443462,152445 -646684,266337l-1000756 -640484 -783719 783719 629680 1000815c-115486,204697 -204698,421793 -266337,646624l-1165542 258661 0 1108626 1165542 260137c61639,227901 150851,446532 266337,651289l-640425 1007014 783660 783660 1006955 -640484c203221,115486 420318,204757 646683,267872l258662 1164006 1108566 0 260197 -1164006c224771,-63115 441867,-153921 645148,-267872l50776 32296 0 -5281099 -46171 29226zm-1456558 4041696l0 0c-791394,0 -1431878,-640543 -1431878,-1431878 0,-789918 640484,-1431937 1431878,-1431937 791395,0 1431938,642019 1431938,1431937 0,791335 -640543,1431878 -1431938,1431878z"/>
   <path class="fil5" d="M34474010 18376893l0 -2337223 -2457373 -545073c-133906,-474222 -321777,-932976 -561958,-1364157l297156 -468024 -11598438 0 286411 455743c-241716,429528 -429587,886865 -560482,1362622l-2457314 546608 0 2337223 2457314 548084c130895,478887 318766,940770 560482,1373427l-1350341 2123256 1653638 1652103 2121721 -1350341c431063,241716 888400,431122 1364158,565087l545013 2454244 2337282 0 549678 -2454244c474164,-133965 929906,-324906 1359552,-565087l2123138 1350341 1652045 -1652103 -1341013 -2123256c238646,-431063 428052,-886865 561958,-1361088l2457373 -548142zm-8514456 1850720l0 0c-1667455,0 -3019273,-1351818 -3019273,-3019273 0,-1667572 1351818,-3019390 3019273,-3019390 1667454,0 3019331,1351818 3019331,3019390 0,1667455 -1351877,3019273 -3019331,3019273z"/>
   <path class="fil5" d="M18971678 34425950l98541 -1853790 -1921511 -541943c-89330,-380288 -221701,-751364 -394162,-1102426l1160936 -1630553 -1244067 -1381044 -1739839 983870c-332582,-207885 -686714,-378752 -1059325,-506577l-332582 -1970752 -1853731 -98599 -535862 1927710c-381822,84666 -751364,217096 -1102426,391092l-1628959 -1160936 -1382638 1244067 985406 1741374c-212491,330988 -381823,685120 -508113,1057731l-561958 92401 0 2511218 407977 115427c86201,383475 218632,754493 394162,1105496l-802139 1122500 53905 962320 0 6081 1476 1594 826819 917626 1742969 -983811c332522,213966 689783,386427 1062336,512658l317231 1892285 0 1535 15351 78526 1853790 98540 49300 -177066 0 -1535 486503 -1749050c384951,-86201 754493,-217096 1108566,-391092l1625889 1159342 1382697 -1242472 -982335 -1742969c209420,-331047 378752,-685119 501972,-1056196l1973821 -332582zm-4923897 -2896170l0 0c-886864,-985346 -2405002,-1065466 -3390408,-178601 -985346,886864 -1065465,2405003 -178601,3390408 886865,985405 2405003,1063930 3390408,177066 985406,-886865 1065466,-2403468 178601,-3388873z"/>
   <path class="fil5" d="M33797038 31655834c72031,-286943 109286,-581856 112534,-877950l1332747 -700706 -368302 -1352172 -1504322 70377c-152150,-253642 -334235,-488746 -540526,-698403l445823 -1439141 -1214841 -695865 -1016284 1108980c-286057,-70142 -579494,-106807 -875057,-111530l-703599 -1333810 -1350165 367416 71264 1506271c-253643,152209 -488747,334235 -699880,539936l-1439613 -444288 -696809 1212833 1114883 1013568c-72031,286884 -108755,580380 -110053,875529l-1335228 703127 368243 1352172 1506330 -71263c150202,254528 330810,489160 538519,699289l-447949 1431760 1214841 695865 1011088 -1099414c286943,72090 580439,108814 877005,110585l701651 1334754 1350165 -367416 -59219 -1286636 -10037 -220520c256477,-151147 493057,-332641 706670,-540704l1438550 447182 594490 -1038956 101434 -175826 -1114353 -1015044zm-3192500 821446l0 0c-964682,262558 -1958707,-307016 -2220321,-1269809 -262558,-964681 306958,-1958707 1269691,-2220320 964741,-262558 1958707,306957 2220380,1269691 262558,964740 -307017,1958766 -1269750,2220438z"/>
   <path class="fil5" d="M49250365 34033973l307903 -1855325 -1878411 -755970c-43100,-395697 -133965,-783719 -269407,-1157866l1351818 -1505798 -1094691 -1530419 -1864595 791394c-309437,-247916 -646624,-457277 -1006955,-625133l-109286 -2023121 -1856861 -306367 -760633 1870676c-394162,46170 -780590,137035 -1153202,271001l-1510463 -1351877 -1528883 1094750 792929 1863001c-218631,274012 -408037,566564 -565028,877595 -21610,43100 -43160,86201 -63175,129301l-2021586 112475 -307903 1853731 304833 123160 1573519 634344c43159,392627 132430,780649 269466,1153261l-1351818 1510462 1094691 1528884 1864595 -794524c307902,250987 646624,461942 1005361,629739l104681 2013911 1855384 306426 759099 -1856860c395638,-43101 783660,-133966 1156272,-271001l1507333 1353411 1530419 -1096285 -792930 -1864536c252522,-309496 466548,-649753 635938,-1011619l2021586 -110821zm-5205702 -83131l0 0c-1091622,780590 -2609760,529604 -3390349,-562018 -782184,-1090086 -529663,-2608224 560423,-3388814 1091621,-782243 2609759,-529662 3390408,560424 782184,1091621 529604,2609759 -560482,3390408z"/>
   <path class="fil8 str2" d="M24093011 44161270l-14596633 0c-1010557,0 -1829819,-819203 -1829819,-1829819l0 -20209959c0,-1010557 819262,-1829878 1829819,-1829878l14596633 0c1010557,0 1829819,819321 1829819,1829878l0 20209959c0,1010616 -819262,1829819 -1829819,1829819z"/>
   <path class="fil4 str1" d="M27622344 23924329l0 20209900c0,1011619 -819144,1830645 -1830705,1830645l-14596278 0c-1009967,0 -1829111,-819026 -1829111,-1830645l0 -20209900c0,-1010026 819144,-1829170 1829111,-1829170l14596278 0c1011561,0 1830705,819144 1830705,1829170z"/>
   <path class="fil7 str2" d="M27622344 23924329l0 1082351 -18256094 0 0 -1082351c0,-1010026 819144,-1829170 1829111,-1829170l14596278 0c1011561,0 1830705,819144 1830705,1829170z"/>
   <path class="fil0" d="M15574481 27013742l-4491417 0 0 -753312 4491417 0 0 753312z"/>
   <path class="fil0" d="M15574481 33767695l-4491417 0 0 -753313 4491417 0 0 753313z"/>
   <path class="fil0" d="M15574481 39892322l-4491417 0 0 -753313 4491417 0 0 753313z"/>
   <path class="fil5" d="M23839309 28678068l-12756245 0 0 -552512 12756245 0 0 552512z"/>
   <path class="fil5" d="M21539164 29721511l-10456100 0 0 -538401 10456100 0 0 538401z"/>
   <path class="fil5" d="M22908458 30761116l-11825394 0 0 -538400 11825394 0 0 538400z"/>
   <path class="fil5" d="M22908458 31799836l-11825394 0 0 -538401 11825394 0 0 538401z"/>
   <path class="fil5" d="M23839309 34802695l-12756245 0 0 -552571 12756245 0 0 552571z"/>
   <path class="fil5" d="M21539164 35846138l-10456100 0 0 -538401 10456100 0 0 538401z"/>
   <path class="fil5" d="M22908458 36885803l-11825394 0 0 -538460 11825394 0 0 538460z"/>
   <path class="fil5" d="M23839309 41528425l-12756245 0 0 -552571 12756245 0 0 552571z"/>
   <path class="fil5" d="M21539164 42571927l-10456100 0 0 -538459 10456100 0 0 538459z"/>
   <path class="fil5" d="M22908458 43611533l-11825394 0 0 -538460 11825394 0 0 538460z"/>
   <path class="fil4 str4" d="M48196472 8081917l0 8168059c0,1205572 -976195,2181707 -2181766,2181707l-18813388 0c-1204037,0 -2181708,-976135 -2181708,-2181707l0 -8168059c0,-1205571 977671,-2183242 2181708,-2183242l18813388 0c1205571,0 2181766,977671 2181766,2183242z"/>
   <path class="fil9 str2" d="M48196472 8081917l0 186336 -23176862 0 0 -186336c0,-1205571 977671,-2183242 2181708,-2183242l18813388 0c1205571,0 2181766,977671 2181766,2183242z"/>
   <path class="fil5" d="M28424484 7473729c-130541,130482 -342147,130482 -472629,0 -130541,-130482 -130541,-342087 0,-472628 130482,-130482 342088,-130482 472629,0 130482,130541 130482,342146 0,472628z"/>
   <path class="fil5" d="M29976571 7473729c-130541,130482 -342087,130482 -472629,0 -130482,-130482 -130482,-342087 0,-472628 130542,-130482 342088,-130482 472629,0 130482,130541 130482,342146 0,472628z"/>
   <path class="fil5" d="M31528658 7473729c-130541,130482 -342087,130482 -472629,0 -130482,-130482 -130482,-342087 0,-472628 130542,-130482 342088,-130482 472629,0 130482,130541 130482,342146 0,472628z"/>
   <path class="fil2 str0" d="M34073412 16318937l-7575989 0 0 -6548724 7575989 0 0 6548724z"/>
   <path class="fil5" d="M43961355 10230148l-8719036 0 0 -459935 8719036 0 0 459935z"/>
   <path class="fil5" d="M41930322 11183848l-6688003 0 0 -459876 6688003 0 0 459876z"/>
   <path class="fil5" d="M45201584 12137607l-9959265 0 0 -465367 9959265 0 0 465367z"/>
   <path class="fil5" d="M43722826 13064088l-8480507 0 0 -465307 8480507 0 0 465307z"/>
   <path class="fil7" d="M37183550 55562155c0,0 -4047837,1160877 -4612925,1361087 -514253,181671 -1907636,669710 -2953086,518858 -103146,-15410 -203222,-36960 -298692,-64651 -1059267,-315695 -1535083,-609782 -1673654,-1276421 -140106,-668234 388022,-1156331 896134,-1470433 508054,-314042 3264059,-642019 3264059,-642019l665163 195546 1536 0 4711465 1378033z"/>
   <path class="fil4" d="M29617539 57442100c-103146,-15410 -203222,-36960 -298692,-64651 -1059267,-315695 -1535083,-609782 -1673654,-1276421 -140106,-668234 388022,-1156331 896134,-1470433 508054,-314042 3264059,-642019 3264059,-642019l665163 195546c-601988,277142 -2846811,431123 -3336444,712869 -489632,281747 -726743,812945 -437262,1530419 153922,381882 566564,751423 920696,1014690z"/>
   <path class="fil7" d="M49511802 57629912c-41565,414177 -187812,811409 -606594,1057790 -278736,164785 -675968,263267 -1244126,257126 -1419538,-18480 -4087808,-1033170 -4087808,-1033170l-2498938 -1381043 1299507 -2057070 355667 -563494 919160 206351c0,0 760575,431063 1525873,774449 765180,343327 2622040,415712 3276457,945375 654359,528069 1131593,1103902 1060802,1793686z"/>
   <path class="fil4" d="M49511802 57629912c-41565,414177 -187812,811409 -606594,1057790 78466,-321836 143176,-766774 -70850,-1247196 -277142,-626609 -1187092,-1179357 -2381918,-1271698 -1193232,-92400 -2109381,-651289 -2588209,-900740 -374088,-194011 -1162471,-617457 -1490388,-794523l355667 -563494 919160 206351c0,0 760575,431063 1525873,774449 765180,343327 2622040,415712 3276457,945375 654359,528069 1131593,1103902 1060802,1793686z"/>
   <path class="fil2 str5" d="M48598132 58810627c459935,-236049 837565,-669533 914142,-1180774 90629,-604705 -253761,-1212480 -739024,-1584442 -485264,-371963 -1091444,-546549 -1690127,-671009 -598623,-124460 -1210826,-208063 -1780342,-430532 -875647,-342087 -1739190,-1017878 -2647841,-776811"/>
   <path class="fil0" d="M44447740 35295220l-4227973 -1608944 -52311 -20015c0,0 15410,-112415 27691,-275606 26155,-337187 40030,-886865 -118556,-1073201 -235576,-275547 -903810,-44635 -1555098,-343327 -651230,-298692 -1856860,235576 -1856860,235576 0,0 -869920,-160121 -1253278,468024 -195546,506577 -127825,1261011 -127825,1261011 0,0 -27690,10805 -80001,29285 -503508,187812 -3244162,1219446 -3824601,1633565 -640543,454207 -1348747,5111826 -1576589,6479054 -227901,1368763 -632809,2600490 -426517,3071642 204756,469617 3150168,2737585 4843837,3322687 1693669,586579 7703046,414178 7703046,414178 0,0 98541,-26215 272537,-81655 1016166,-326382 4622135,-1670525 6534376,-4840766 0,0 -1852196,-6075564 -4281878,-8671508zm-11422907 7833943l0 0c-311032,220166 -144712,1074676 -144712,1074676l-529662 -466547 1328732 -3267188 566623 2508148c0,0 -909950,-67721 -1220981,150911zm10629977 2075491l0 0c-146246,75455 420377,-1495053 150911,-1850720 -269407,-357202 -1076211,-321777 -1076211,-321777l69256 -429587c9269,-47706 478827,-2455779 478827,-2455779l158586 -189405c0,0 1644428,2819180 1938456,3812261 0,0 -1792151,1435007 -1719825,1435007z"/>
   <path class="fil4" d="M36465013 25104808l-2182121 2316794c0,0 -300994,265983 -181376,938054 119619,672071 398118,1249381 608543,1294134 210365,44813 505278,45226 505278,45226 0,0 467610,1013450 798775,1411686 0,0 115426,1564250 53964,1998501 0,0 783896,684824 1522330,771852 738493,87086 1879473,-1044329 1879473,-1044329l282750 -1384940c0,0 669415,-1016225 715054,-1286695 45698,-270588 351711,-201214 502031,-334589 150438,-133434 498489,-730227 555936,-1294193 57448,-563966 61522,-1211653 -593545,-1021421 -567568,-152564 -212314,-1352526 -212314,-1352526l-997391 -880016 -3257387 -177538z"/>
   <path class="fil10" d="M40219767 33686276c-33831,89271 -70791,173937 -112415,252462 -360214,678979 -1929187,1972346 -1929187,1972346l-474222 -1458034 -260197 1458034c-523522,-227901 -2120186,-1612014 -2120186,-1612014 0,0 -53846,-129361 -120031,-331047 52311,-18480 80001,-29285 80001,-29285 0,0 -67721,-754434 127825,-1261011 383358,-628145 1253278,-468024 1253278,-468024 0,0 1205630,-534268 1856860,-235576 651288,298692 1319522,67780 1555098,343327 235576,275607 90865,1348807 90865,1348807l52311 20015z"/>
   <path class="fil11" d="M44447740 35295220l-4227973 -1608944 -52311 -20015c0,0 15410,-112415 27691,-275606l-87795 548083 -625074 849905c0,0 1057199,381409 1950913,859883 621295,332699 978202,1009140 896311,1709138l-779408 6664504 -318707 3784511 963855 1000815c1016166,-326382 4622135,-1670525 6534376,-4840766 0,0 -1852196,-6075564 -4281878,-8671508zm-792930 9909434l0 0c-146246,75455 420377,-1495053 150911,-1850720 -269407,-357202 -1076211,-321777 -1076211,-321777l69256 -429587c9269,-47706 478827,-2455779 478827,-2455779l158586 -189405c0,0 1644428,2819180 1938456,3812261 0,0 -1792151,1435007 -1719825,1435007z"/>
   <path class="fil11" d="M34532225 43353934l-657488 -2197117c0,0 -1178707,-4020323 -1987106,-5011869l212550 2827328c0,0 -693562,3377773 -1335581,4381658 -642019,1002350 -780590,1253337 0,1253337 782125,0 2679015,1513532 2679015,1513532l-146246 -1262605 1234856 -1504264zm-1652104 849905l0 0 -529662 -466547 1328732 -3267188 566623 2508148c0,0 -909950,-67721 -1220981,150911 -311032,220166 -144712,1074676 -144712,1074676z"/>
   <path class="fil2 str5" d="M36014112 31110702c0,0 121389,1184730 0,1726024"/>
   <path class="fil2 str5" d="M39590560 32678022c0,0 -6908,-577191 131840,-1131888"/>
   <path class="fil2 str5" d="M39907909 25988071c0,0 716825,900562 680042,1580545 -36783,680042 -91869,1488676 -73507,2279008 18362,790272 -1268156,2444384 -1929836,2591397 -661621,147073 -1231373,183797 -1654111,-238941 -422679,-422621 -845417,-1010794 -1396807,-1764342 -551331,-753549 -422680,-2407601 -422680,-2407601"/>
   <path class="fil2 str5" d="M38182653 28658407c-43809,246971 -62585,498370 -55913,749120 5550,209953 36783,436850 183856,586756 79234,80769 194306,145361 209362,257540 13343,99485 -62703,189819 -147250,243960 -84489,54141 -182616,87618 -258367,153509"/>
   <path class="fil2 str5" d="M37044389 30736614c0,0 82894,534268 799246,646034"/>
   <path class="fil5" d="M37118958 29065735c0,154335 -66776,279503 -149080,279503 -82363,0 -149080,-125168 -149080,-279503 0,-154394 66717,-279503 149080,-279503 82304,0 149080,125109 149080,279503z"/>
   <path class="fil5" d="M39255735 29132866c0,154394 -66776,279503 -149080,279503 -82364,0 -149081,-125109 -149081,-279503 0,-154335 66717,-279445 149081,-279445 82304,0 149080,125110 149080,279445z"/>
   <path class="fil2 str6" d="M38824613 28456189c0,0 694802,-694802 1282739,80120"/>
   <path class="fil2 str6" d="M37354889 28469474c0,0 -440923,-494356 -1135667,0"/>
   <path class="fil5" d="M36068076 31761695c0,0 425513,1173099 1375906,1505740 950512,332699 2212468,-1393797 2212468,-1393797l-66008 -224535c0,0 -826879,1074322 -1746807,891175 -919869,-183266 -1829523,-1429576 -1829523,-1429576l53964 650993z"/>
   <path class="fil2 str5" d="M35215337 29653790c0,0 -566564,200092 -717179,-241421 -150674,-441396 -667112,-1603454 -215266,-1990767 451964,-387372 815129,511419 815129,511419"/>
   <path class="fil2 str5" d="M40513381 29894503c0,0 526593,105921 677208,-335534 150674,-441454 667112,-1603453 215207,-1990825 -451905,-387373 -815070,511418 -815070,511418"/>
   <path class="fil5" d="M35098021 29065735c156933,-7144 414473,-160121 497131,-293732 82658,-133611 117611,-290721 144475,-445528 51366,-296449 77758,-597207 78762,-898083 413,-117552 -2716,-237466 31587,-349940 35720,-117079 109935,-218454 189405,-311504 197790,-231738 435846,-427520 623835,-667229 188047,-239651 326146,-543125 275311,-843470 0,0 1284805,1174457 3136883,811233 997037,-195546 1954043,-1070603 1837554,-2170253 -41448,-391447 -329099,-672839 -702537,-765653 -492939,-122570 -935810,140165 -1382283,308552 -814126,307017 -1610657,-220225 -2433225,-308670 -703363,-75632 -1566789,11632 -1933142,710980 0,0 -1263492,148431 -1816948,1186147 -553456,1037716 498607,2474436 498607,2474436 0,0 423447,-512600 967574,525116l-12989 1037598z"/>
   <path class="fil5" d="M39987556 25722679c0,0 -326736,1702643 525825,2527101 0,0 186631,-511833 375741,-636706 0,0 474518,-899617 -149316,-1890395 -623834,-990778 -752250,0 -752250,0z"/>
   <path class="fil12 str7" d="M41549326 23785049c-126172,469205 -522932,832311 -972947,1015576 -1183609,482134 -2333150,-52547 -3518234,-157287 -968519,-85610 -2036228,786966 -2103831,1781228"/>
   <path class="fil12 str7" d="M34219245 26162362c17831,-782775 535036,-1531895 1260717,-1825863"/>
   <path class="fil2 str5" d="M35741162 32678022c0,0 779822,859292 1843222,1260953 0,0 1416881,-410871 2138016,-1398697"/>
   <path class="fil2 str5" d="M37918618 29065735c0,692441 -561368,1253809 -1253749,1253809 -692500,0 -1253868,-561368 -1253868,-1253809 0,-692440 561368,-1253808 1253868,-1253808 692381,0 1253749,561368 1253749,1253808"/>
   <path class="fil2 str5" d="M40719791 29065735c0,692441 -561309,1253809 -1253809,1253809 -692440,0 -1253809,-561368 -1253809,-1253809 0,-692440 561369,-1253808 1253809,-1253808 692500,0 1253809,561368 1253809,1253808"/>
   <path class="fil2 str5" d="M36014112 32210412c0,0 -381173,77108 -603111,467610 -221878,390442 -88031,1620339 -88031,1620339 0,0 1145526,1133777 2121012,1611955"/>
   <path class="fil2 str5" d="M37443982 35910316l287829 -1618213 446650 1618213"/>
   <path class="fil2 str5" d="M38178461 35910316c0,0 1510580,-1068299 1928891,-1971341 0,0 136386,-1052890 0,-1398697 -136446,-345925 -450902,-329866 -450902,-329866"/>
   <path class="fil2 str5" d="M34219245 43032570c0,0 -447181,-3000260 -1043207,-4224371"/>
   <path class="fil2 str5" d="M31887631 36144948c0,0 566092,793402 926718,1550788"/>
   <path class="fil2 str5" d="M43654988 38384811c157582,-597797 324965,-1122145 492466,-1464469"/>
   <path class="fil2 str5" d="M42729333 43032570c0,0 323016,-2056834 707496,-3751920"/>
   <path class="fil2 str5" d="M43277121 40146142c307666,-410694 753844,-715821 1248141,-853506"/>
   <path class="fil2 str5" d="M40167987 33666143c0,0 2601553,1039133 4280461,1629314 0,0 2065750,1942706 4280521,8671448 0,0 -2030207,3414083 -5890232,4508598"/>
   <path class="fil2 str5" d="M43509214 45326811l1865126 -1557224"/>
   <path class="fil2 str5" d="M45374340 43769587c0,0 986704,-749888 2012789,-236816"/>
   <path class="fil2 str5" d="M43436829 39957858c0,0 1542876,2272513 1937511,3811729"/>
   <path class="fil2 str5" d="M32896889 44290040l-545899 -520453"/>
   <path class="fil2 str5" d="M32350990 43769587c0,0 -810229,-141581 -1727618,473396"/>
   <path class="fil2 str5" d="M32350990 43769587c0,0 677975,-2226874 1346681,-3376474"/>
   <path class="fil2 str5" d="M35282940 33938975c0,0 -3742179,1404187 -4109181,1813051 -366885,408981 -1761331,8262643 -1797996,9161375 -32886,803380 2882000,2608579 4321908,3369449"/>
   <path class="fil4 str1" d="M48830933 32678022l-4264283 0c-503507,0 -911662,-408214 -911662,-911721l0 -2501595c0,-503449 408155,-911663 911662,-911663l4264283 0c503508,0 911663,408214 911663,911663l0 2501595c0,503507 -408155,911721 -911663,911721z"/>
   <path class="fil2 str5" d="M45619067 29653790l-1170619 734892 1086308 963441"/>
   <path class="fil2 str5" d="M47752183 31422147l1052005 -896548 -1214369 -796117"/>
   <path class="fil2 str5" d="M46188170 31973773l864193 -2709658"/>
   <path class="fil5" d="M38081396 36592248c0,135913 -110172,246085 -246085,246085 -135973,0 -246145,-110172 -246145,-246085 0,-135973 110172,-246145 246145,-246145 135913,0 246085,110172 246085,246145z"/>
   <path class="fil5" d="M42411629 49743245l-8516700 0c-110230,0 -199678,-89448 -199678,-199679 0,-110230 89448,-199679 199678,-199679l8516700 0c110290,0 199679,89449 199679,199679 0,110231 -89389,199679 -199679,199679z"/>
   <path class="fil4 str1" d="M42709731 49081329l1141334 -5359624c75514,-354841 -195074,-689135 -557885,-689135l-9950644 0c-359328,0 -629089,328331 -559538,680869l1023251 5181259c51838,262382 279031,453558 546489,459699l7786060 178365c274071,6258 513839,-183325 570933,-451433z"/>
   <path class="fil5" d="M39078374 46121276c0,438738 -355608,794405 -794347,794405 -438797,0 -794464,-355667 -794464,-794405 0,-438739 355667,-794465 794464,-794465 438739,0 794347,355726 794347,794465z"/>
   <path class="fil2 str5" d="M40639789 43541155l1182250 0"/>
   <path class="fil2 str5" d="M34993990 43541155l4487638 0"/>
   <path class="fil5" d="M42729333 54767277l-907294 2380914c0,0 -2313075,-583096 -5277084,-1190457 -3099214,-635052 -6336055,-1457325 -8015141,-4402914 -204697,-359150 -340847,-783423 -245082,-1185615 242366,-1017465 1565962,-1293662 2438421,-1395509 547552,-63942 1100300,-85138 1651277,-92813 280861,-3956 1207579,-151147 1431819,13815 59,60 581560,427875 1077038,638182 495418,210365 7728021,-188993 7728021,-188993 0,0 215089,-454030 227429,-868384 1136906,-577782 3769573,-1067296 4881918,-851027 1749286,340139 2769644,1360497 2575338,2429564 -194424,1068950 -4054686,3935835 -7566660,4713237z"/>
   <path class="fil2 str8" d="M42729333 54767277c0,0 -2200011,-583096 -3997888,-1797878 -1797819,-1214723 -3202420,-2623870 -5707144,-2332322"/>
   <path class="fil2 str8" d="M38317917 52682870c1135548,-326795 1969039,-1061215 2880288,-1766703 965154,-747291 1985866,-1470964 3083628,-2026310"/>
   <path class="fil2 str5" d="M37918618 29264115l333172 0"/>
  </g>
 </g>
</svg>
